<svg height="496pt" viewBox="0 0 496 496" width="496pt" xmlns="http://www.w3.org/2000/svg"><g fill="#cf9e76"><path d="m488 456v32h-480v-32zm0 0"/><path d="m376 424v32h-256v-32zm0 0"/><path d="m344 392v32h-192v-32zm0 0"/></g><path d="m376 232v192h-32v-192zm0 0" fill="#838f9b"/><path d="m152 392v32h-32v-192h32zm0 0" fill="#838f9b"/><path d="m376 232h96v224h-32v-64h-32v64h-32zm0 0" fill="#ccd1d9"/><path d="m344 232v160h-72v-80h-48v80h-72v-240h79.28125l4.878906 8.960938c2.398438 4.320312 6.878906 7.039062 11.839844 7.039062s9.441406-2.71875 11.839844-7.039062l4.878906-8.960938h79.28125zm0 0" fill="#e6e9ed"/><path d="m24 232h96v224h-32v-64h-32v64h-32zm0 0" fill="#ccd1d9"/><path d="m408 392h32v64h-32zm0 0" fill="#fcd770"/><path d="m224 312h48v80h-48zm0 0" fill="#fcd770"/><path d="m56 392h32v64h-32zm0 0" fill="#fcd770"/><path d="m264.71875 152-4.878906 8.960938c-2.398438 4.320312-6.878906 7.039062-11.839844 7.039062s-9.441406-2.71875-11.839844-7.039062l-4.878906-8.960938-32.480469-59.441406c-4.480469-8.238282-6.800781-17.4375-6.800781-26.796875v-1.761719c0-30.960938 25.039062-56 56-56 15.519531 0 29.441406 6.238281 39.601562 16.398438 10.160157 10.160156 16.398438 24.082031 16.398438 39.601562v1.761719c0 9.359375-2.320312 18.558593-6.800781 26.796875zm0 0" fill="#ff826e"/><path d="m272 64c0 13.253906-10.746094 24-24 24s-24-10.746094-24-24 10.746094-24 24-24 24 10.746094 24 24zm0 0" fill="#fcd770"/><path d="m480 448v-224h-128v-80h-73.800781l25.984375-47.632812c5.113281-9.375 7.816406-19.976563 7.816406-30.648438v-1.71875c0-35.289062-28.710938-64-64-64s-64 28.710938-64 64v1.71875c0 10.671875 2.703125 21.273438 7.816406 30.648438l25.984375 47.632812h-73.800781v80h-128v224h-16v48h496v-48zm-16 0h-16v-64h-48v64h-16v-208h80zm-32 0h-16v-48h16zm-304-16h240v16h-240zm32-32h176v16h-176zm104-16h-32v-64h32zm104-144v176h-16v-176zm-168-174.28125v-1.71875c0-26.472656 21.527344-48 48-48s48 21.527344 48 48v1.71875c0 8.007812-2.023438 15.960938-5.855469 22.992188l-37.335937 68.441406c-1.921875 3.511718-7.6875 3.511718-9.609375 0l-37.335938-68.441406c-3.839843-7.03125-5.863281-14.984376-5.863281-22.992188zm26.527344 94.28125 2.625 4.808594c3.757812 6.902344 10.984375 11.191406 18.847656 11.191406s15.089844-4.289062 18.847656-11.191406l2.625-4.808594h66.527344v224h-56v-80h-64v80h-56v-224zm-82.527344 256h-16v-176h16zm-112-176h80v208h-16v-64h-48v64h-16zm48 208h-16v-48h16zm400 32h-464v-16h464zm0 0"/><path d="m176 208h56v16h-56zm0 0"/><path d="m264 208h56v16h-56zm0 0"/><path d="m176 240h56v16h-56zm0 0"/><path d="m264 240h56v16h-56zm0 0"/><path d="m176 272h56v16h-56zm0 0"/><path d="m264 272h56v16h-56zm0 0"/><path d="m280 64c0-17.648438-14.351562-32-32-32s-32 14.351562-32 32 14.351562 32 32 32 32-14.351562 32-32zm-48 0c0-8.824219 7.175781-16 16-16s16 7.175781 16 16-7.175781 16-16 16-16-7.175781-16-16zm0 0"/><path d="m48 256h16v16h-16zm0 0"/><path d="m80 256h16v16h-16zm0 0"/><path d="m48 288h16v16h-16zm0 0"/><path d="m80 288h16v16h-16zm0 0"/><path d="m48 320h16v16h-16zm0 0"/><path d="m80 320h16v16h-16zm0 0"/><path d="m48 352h16v16h-16zm0 0"/><path d="m80 352h16v16h-16zm0 0"/><path d="m432 256h16v16h-16zm0 0"/><path d="m400 256h16v16h-16zm0 0"/><path d="m432 288h16v16h-16zm0 0"/><path d="m400 288h16v16h-16zm0 0"/><path d="m432 320h16v16h-16zm0 0"/><path d="m400 320h16v16h-16zm0 0"/><path d="m432 352h16v16h-16zm0 0"/><path d="m400 352h16v16h-16zm0 0"/></svg>