<svg id="Capa_1" enable-background="new 0 0 512 512" height="512" viewBox="0 0 512 512" width="512" xmlns="http://www.w3.org/2000/svg"><g><g><path d="m28.961 372.897h-21.461c-4.142 0-7.5-3.357-7.5-7.5s3.358-7.5 7.5-7.5h13.961v-22.365c0-4.143 3.358-7.5 7.5-7.5s7.5 3.357 7.5 7.5v29.865c0 4.142-3.357 7.5-7.5 7.5z" fill="#454045"/></g><g><path d="m265.073 172.581h-38.61v-29.305c0-10.662 8.643-19.305 19.305-19.305 10.662 0 19.305 8.643 19.305 19.305z" fill="#da4a54"/><path d="m245.768 123.97c-2.836 0-5.521.627-7.947 1.725 6.694 3.031 11.359 9.754 11.359 17.58v29.305h15.893v-29.305c0-10.661-8.643-19.305-19.305-19.305z" fill="#d82e3d"/></g><path d="m504.5 297.991v33.18c0 7.93-6.43 14.36-14.37 14.36h-467.29c-8.47 0-15.34-6.86-15.34-15.33v-57.74c0-6.88 4.59-12.92 11.21-14.78l23.72-6.61c4.7-1.31 8.89-4.01 12.03-7.73l58.49-69.27c.6-.72 1.23-1.4 1.89-2.06.361-.359.729-.709 1.105-1.049 5.917-5.357 13.877 14.747 21.963 14.747l206.922 52.152 4.07 6.12c2.17 3.27 5.49 5.6 9.29 6.54l135.4 33.52c6.41 1.59 10.91 7.34 10.91 13.95z" fill="#698ed5"/><path d="m493.59 284.041-135.4-33.52c-3.8-.94-7.12-3.27-9.29-6.54l-3.855-5.797-15.299 9.811 4.601 6.918c2.17 3.27 5.49 5.6 9.29 6.54l135.4 33.52c6.41 1.59 10.91 7.34 10.91 13.95v33.18c0 1.183-.159 2.327-.429 3.427h.612c7.94 0 14.37-6.43 14.37-14.36v-33.18c0-6.609-4.5-12.359-10.91-13.949z" fill="#4073c8"/><circle cx="96.782" cy="340.675" fill="#544f57" r="47.354"/><path d="m96.782 293.32c-2.854 0-5.643.267-8.358.75 22.164 3.95 38.996 23.305 38.996 46.604s-16.832 42.654-38.996 46.604c2.715.484 5.505.75 8.358.75 26.153 0 47.354-21.201 47.354-47.354.001-26.153-21.201-47.354-47.354-47.354z" fill="#454045"/><circle cx="96.782" cy="340.675" fill="#f6f1f1" r="16.716"/><path d="m96.782 323.958c-2.51 0-4.882.569-7.019 1.56 5.721 2.654 9.698 8.434 9.698 15.156s-3.977 12.502-9.698 15.156c2.136.991 4.508 1.56 7.019 1.56 9.232 0 16.716-7.484 16.716-16.716s-7.484-16.716-16.716-16.716z" fill="#eadfda"/><circle cx="392.184" cy="340.675" fill="#544f57" r="47.354"/><path d="m392.184 293.32c-2.854 0-5.643.267-8.358.75 22.164 3.95 38.996 23.305 38.996 46.604s-16.832 42.654-38.996 46.604c2.715.484 5.505.75 8.358.75 26.153 0 47.354-21.201 47.354-47.354.001-26.153-21.2-47.354-47.354-47.354z" fill="#454045"/><circle cx="392.184" cy="340.675" fill="#f6f1f1" r="16.716"/><path d="m392.184 323.958c-2.51 0-4.882.569-7.019 1.56 5.721 2.654 9.698 8.434 9.698 15.156s-3.977 12.502-9.698 15.156c2.136.991 4.508 1.56 7.019 1.56 9.232 0 16.716-7.484 16.716-16.716s-7.483-16.716-16.716-16.716z" fill="#eadfda"/><path d="m348.9 243.981h-132.44v-81.4h60.95c10.84 0 20.95 5.42 26.96 14.44z" fill="#b1e4f9"/><path d="m304.37 177.021c-6.01-9.02-16.12-14.44-26.96-14.44h-21.183c10.84 0 20.95 5.42 26.96 14.44l44.53 66.96h21.183z" fill="#75cef9"/><path d="m216.46 162.581v81.4h-112.18l7.27-49.54 3.29-22.43c6.04-6.01 14.25-9.43 22.85-9.43z" fill="#b1e4f9"/><path d="m208.963 162.581h7.497v81.4h-7.497z" fill="#75cef9"/><g><g><path d="m324.605 256.369c-1.92 0-3.839-.732-5.304-2.197l-30.808-30.808c-2.929-2.929-2.929-7.678 0-10.606 2.931-2.93 7.679-2.929 10.607 0l30.808 30.808c2.929 2.929 2.929 7.678 0 10.606-1.464 1.464-3.384 2.197-5.303 2.197z" fill="#544f57"/></g><g><path d="m287.187 232.171c-1.92 0-3.839-.732-5.304-2.197-2.929-2.929-2.929-7.678.001-10.606l13.221-13.22c2.929-2.929 7.678-2.929 10.606 0s2.929 7.678-.001 10.606l-13.221 13.22c-1.463 1.465-3.383 2.197-5.302 2.197z" fill="#454045"/></g></g><path d="m104.28 243.984v18.922c0 3.454 2.425 6.434 5.807 7.136 33.09 6.87 56.814 36.024 56.814 69.819v5.674h154.592l.042-4.794c.184-21.142 8.886-41.317 24.138-55.96l.991-.951c1.432-1.374 2.241-3.273 2.241-5.257v-34.589z" fill="#f6f1f1"/><path d="m327.717 243.984v34.589c0 1.984-.809 3.883-2.241 5.257l-.991.951c-15.252 14.643-23.955 34.817-24.138 55.96l-.042 4.794h21.187l.042-4.794c.184-21.142 8.886-41.317 24.138-55.96l.991-.951c1.432-1.374 2.241-3.273 2.241-5.257v-34.589z" fill="#eadfda"/><g><path d="m252.711 282.789h-5.168c-4.142 0-7.5-3.357-7.5-7.5s3.358-7.5 7.5-7.5h5.168c4.142 0 7.5 3.357 7.5 7.5s-3.358 7.5-7.5 7.5z" fill="#454045"/></g><g><path d="m186.298 282.789h-5.168c-4.142 0-7.5-3.357-7.5-7.5s3.358-7.5 7.5-7.5h5.168c4.142 0 7.5 3.357 7.5 7.5s-3.358 7.5-7.5 7.5z" fill="#454045"/></g><path d="m245.333 243.981h-28.873v-49.545h10.25c10.285 0 18.623 8.338 18.623 18.623z" fill="#544f57"/><path d="m139.76 213.061v30.92h-35.48l7.27-49.54h9.59c10.29 0 18.62 8.33 18.62 18.62z" fill="#544f57"/><g><path d="m504.5 315.436h-18.53c-4.143 0-7.5-3.357-7.5-7.5s3.357-7.5 7.5-7.5h18.53c4.143 0 7.5 3.357 7.5 7.5s-3.358 7.5-7.5 7.5z" fill="#f6e266"/></g><g><path d="m19.142 302.259h-11.642c-4.142 0-7.5-3.357-7.5-7.5s3.358-7.5 7.5-7.5h11.642c4.142 0 7.5 3.357 7.5 7.5s-3.358 7.5-7.5 7.5z" fill="#da4a54"/></g><path d="m208.963 243.984h15v101.551h-15z" fill="#eadfda"/></g></svg>